<svg xmlns="http://www.w3.org/2000/svg" viewBox="0 0 234.15 101.09"><defs><style>.cls-1{fill:#003361;}.cls-2{fill:#e96532;}</style></defs><title>valtimo-icon</title><g id="Layer_2" data-name="Layer 2"><g id="Logo"><path class="cls-1" d="M91.86,85.65c-1.37,15.21-19.28,13-30.3,12.58-14-.58-16.66-11.87-15.34-23.66,1.7-15.18,19.09-13,30.3-12.58,15.34.63,15.34,11.86,15.34,23.66,0,1.85,3.63,1.3,3.63-.28,0-5.88,1.06-13.22-2.09-18.5-3.73-6.23-9.92-7.36-16.55-7.46-13.22-.21-32.7-2.69-34.25,15.45-1.22,14.28,2.63,25.75,18.64,26,13.29.18,32.6,2.76,34.25-15.45C95.65,83.58,92,84.09,91.86,85.65Z"/><path class="cls-1" d="M196.18,26.31c-1.36,15-20,13.35-31,12.65-13.9-.88-15.77-12.4-14.61-23.78,1.53-15,19.9-13.36,31-12.65,15.06,1,14.61,12.36,14.61,23.78,0,1.74,3.61,1.12,3.61-.34,0-5.86,1.07-13.18-2.08-18.45-4-6.65-10.59-7.4-17.53-7.4-13,0-31.74-2.54-33.27,15.38-1.28,15,3.22,25.85,19.6,25.85,13.07,0,31.65,2.6,33.27-15.38C200,24.26,196.31,24.83,196.18,26.31Z"/><path class="cls-1" d="M18,80.86H35.43c.75,0,4-1.43,2.33-1.43H20.37c-.75,0-4,1.43-2.33,1.43h0Z"/><path class="cls-1" d="M32.81,77.39,37,80.66l.23-1-3.87,3.4c-.58.51-.36,1.07.34,1.26a3.11,3.11,0,0,0,2.53-.68l3.87-3.4c.23-.2.59-.71.23-1L36.14,76a2.46,2.46,0,0,0-2.37,0c-.34.14-1.61.92-1,1.43h0Z"/><path class="cls-1" d="M93.46,81.29H105c.73,0,2-.22,2.35-1a.93.93,0,0,0-1-1.27H94.79c-.73,0-2,.22-2.35,1a.93.93,0,0,0,1,1.27h0Z"/><path class="cls-1" d="M100.75,77.37,105,80.65l.25-.91-3.87,3.4c-.56.49-.4,1,.31,1.14a3.31,3.31,0,0,0,2.53-.68l3.87-3.4c.21-.19.6-.64.25-.91L104.1,76c-.94-.73-4.21.68-3.34,1.36h0Z"/><path class="cls-1" d="M135.62,81.32h64.8c1.55,0,3.72-2.35,1.31-2.35h-64.8c-1.55,0-3.72,2.35-1.31,2.35Z"/><path class="cls-1" d="M142.21,19.11H125c-.71,0-2.53.38-2.53,1.34V69.33c0,.83,3.58.24,3.58-1V19.49l-2.53,1.34h17.22c1.15,0,3.86-1.72,1.48-1.72h0Z"/><path class="cls-1" d="M196.12,77.35l4.22,3.27.27-.84-3.87,3.4c-.54.47-.43.9.28,1a3.5,3.5,0,0,0,2.53-.68l3.87-3.4c.2-.18.62-.57.27-.84L199.47,76c-.89-.69-4.13.71-3.35,1.32h0Z"/><path class="cls-1" d="M138,17.58l4.22,3.27-.07-1.37-3.87,3.4a.85.85,0,0,0,.4,1.51,2.77,2.77,0,0,0,2.53-.68l3.87-3.4a.83.83,0,0,0-.07-1.37l-4.23-3.29c-1.08-.84-4.32.73-2.8,1.9h0Z"/><path class="cls-2" d="M17.41,80.35c-.22,4.06-3.09,8.19-7.68,7.27A8,8,0,0,1,3.66,79.8c0-4.4,3.73-8.36,8.33-6.9,3.44,1.09,5.24,4.29,5.43,7.73.07,1.24,3.66.49,3.58-1-.69-12.84-21-11.58-21,.82,0,13,20.32,11.7,21-.55C21.08,78.39,17.47,79.07,17.41,80.35Z"/><path class="cls-2" d="M218.7,68.36,206.81,79.65a1,1,0,0,0-.16,1.26l11.88,12.46c.83.87,2.37.49,3.13-.29l12.18-12.43a1,1,0,0,0,.16-1.26l-12.17-11.3c-1.13-1-4.51.41-3.29,1.54l6.09,5.65,4.44,4.12a8.52,8.52,0,0,0,1.2,1.11c.9.51,0,.09.49-.73-1.3,2.33-4.46,4.56-6.3,6.45l-5.76,5.9,3.13-.29c-3.94-4.13-8-8.14-11.83-12.41.8.9-.72,1.5.23.79a14.08,14.08,0,0,0,1.17-1.11L215.73,75l5.94-5.65C223.27,67.81,219.79,67.31,218.7,68.36Z"/><path class="cls-2" d="M137.92,79.39l-12.17-11.3a2.37,2.37,0,0,0-2.26-.11,2,2,0,0,0-.86.43l-11.88,11.3a.88.88,0,0,0-.18,1.19l11.88,12.46c.8.84,2.4.42,3.12-.32l12.17-12.46h0a.82.82,0,0,0,.22-.34h0A.68.68,0,0,0,137.92,79.39ZM114,80.28c-.14.23-.33.29,0,0Zm14.39,6-4,4.13C121,87,117.46,83.62,114.38,80c.32-.29.63-.61.94-.91l4.33-4.12,4.23-4,4.67,4.34L133,79.39c.62.57.9,1,1.09,1.11h0l.13.07c-1.36,2.08-4.29,4.13-5.82,5.7Z"/><path class="cls-1" d="M216.16,60.15l3.27,4.22c.26.33,1,1,1.42.5l3.4-3.87a2.25,2.25,0,0,0,.15-2.4c-.2-.44-1.06-1.56-1.64-.9l-3.4,3.87,1.42.5-3.27-4.22c-1.49-1.92-2.33,1-1.35,2.3h0Z"/><path class="cls-1" d="M198.78,21.11h17a9.1,9.1,0,0,1,2.66,0c1.08.47-.08-.71.28.2.59,1.45,0,4.44,0,6V62.18c0,.65,2.9.19,2.9-.78V20c0-.31-.69-.3-.85-.3H200c-.92,0-3.13,1.37-1.2,1.37h0Z"/></g></g></svg>